<svg xmlns="http://www.w3.org/2000/svg" xmlns:xlink="http://www.w3.org/1999/xlink" width="250" zoomAndPan="magnify" viewBox="0 0 810 809.999993" height="250" preserveAspectRatio="xMidYMid meet" version="1.0"><defs><g/></defs><g fill="#ffffff" fill-opacity="1"><g transform="translate(140.16171, 65.725648)"><g><path d="M 6.1875 0.140625 C 5.238281 0.140625 4.382812 -0.0234375 3.625 -0.359375 C 2.863281 -0.691406 2.265625 -1.160156 1.828125 -1.765625 C 1.398438 -2.378906 1.1875 -3.09375 1.1875 -3.90625 L 3.65625 -3.90625 C 3.71875 -3.289062 3.960938 -2.785156 4.390625 -2.390625 C 4.816406 -2.003906 5.414062 -1.8125 6.1875 -1.8125 C 6.988281 -1.8125 7.613281 -2.003906 8.0625 -2.390625 C 8.507812 -2.773438 8.734375 -3.273438 8.734375 -3.890625 C 8.734375 -4.359375 8.59375 -4.742188 8.3125 -5.046875 C 8.03125 -5.347656 7.679688 -5.578125 7.265625 -5.734375 C 6.859375 -5.898438 6.285156 -6.078125 5.546875 -6.265625 C 4.628906 -6.503906 3.878906 -6.75 3.296875 -7 C 2.722656 -7.257812 2.234375 -7.648438 1.828125 -8.171875 C 1.421875 -8.703125 1.21875 -9.410156 1.21875 -10.296875 C 1.21875 -11.109375 1.421875 -11.816406 1.828125 -12.421875 C 2.234375 -13.035156 2.800781 -13.503906 3.53125 -13.828125 C 4.269531 -14.160156 5.117188 -14.328125 6.078125 -14.328125 C 7.453125 -14.328125 8.578125 -13.984375 9.453125 -13.296875 C 10.328125 -12.609375 10.8125 -11.671875 10.90625 -10.484375 L 8.34375 -10.484375 C 8.300781 -10.992188 8.054688 -11.429688 7.609375 -11.796875 C 7.160156 -12.160156 6.570312 -12.34375 5.84375 -12.34375 C 5.175781 -12.34375 4.628906 -12.171875 4.203125 -11.828125 C 3.785156 -11.492188 3.578125 -11.007812 3.578125 -10.375 C 3.578125 -9.9375 3.707031 -9.578125 3.96875 -9.296875 C 4.238281 -9.023438 4.578125 -8.804688 4.984375 -8.640625 C 5.390625 -8.484375 5.945312 -8.304688 6.65625 -8.109375 C 7.59375 -7.859375 8.351562 -7.601562 8.9375 -7.34375 C 9.53125 -7.082031 10.03125 -6.679688 10.4375 -6.140625 C 10.851562 -5.609375 11.0625 -4.894531 11.0625 -4 C 11.0625 -3.28125 10.867188 -2.601562 10.484375 -1.96875 C 10.097656 -1.332031 9.535156 -0.820312 8.796875 -0.4375 C 8.054688 -0.0507812 7.1875 0.140625 6.1875 0.140625 Z M 6.1875 0.140625 "/></g></g></g><g fill="#ffffff" fill-opacity="1"><g transform="translate(152.038346, 65.725648)"><g><path d="M 0.75 -5.65625 C 0.75 -6.78125 0.984375 -7.773438 1.453125 -8.640625 C 1.921875 -9.515625 2.554688 -10.191406 3.359375 -10.671875 C 4.171875 -11.148438 5.066406 -11.390625 6.046875 -11.390625 C 6.921875 -11.390625 7.6875 -11.21875 8.34375 -10.875 C 9.007812 -10.53125 9.535156 -10.097656 9.921875 -9.578125 L 9.921875 -11.203125 L 12.265625 -11.203125 L 12.265625 0 L 9.921875 0 L 9.921875 -1.671875 C 9.535156 -1.140625 9 -0.695312 8.3125 -0.34375 C 7.632812 0.0078125 6.863281 0.1875 6 0.1875 C 5.039062 0.1875 4.160156 -0.0546875 3.359375 -0.546875 C 2.554688 -1.046875 1.921875 -1.738281 1.453125 -2.625 C 0.984375 -3.519531 0.75 -4.53125 0.75 -5.65625 Z M 9.921875 -5.609375 C 9.921875 -6.390625 9.757812 -7.0625 9.4375 -7.625 C 9.125 -8.195312 8.707031 -8.628906 8.1875 -8.921875 C 7.675781 -9.222656 7.125 -9.375 6.53125 -9.375 C 5.9375 -9.375 5.378906 -9.226562 4.859375 -8.9375 C 4.347656 -8.644531 3.929688 -8.21875 3.609375 -7.65625 C 3.296875 -7.09375 3.140625 -6.425781 3.140625 -5.65625 C 3.140625 -4.882812 3.296875 -4.207031 3.609375 -3.625 C 3.929688 -3.039062 4.351562 -2.59375 4.875 -2.28125 C 5.394531 -1.976562 5.945312 -1.828125 6.53125 -1.828125 C 7.125 -1.828125 7.675781 -1.972656 8.1875 -2.265625 C 8.707031 -2.566406 9.125 -3.003906 9.4375 -3.578125 C 9.757812 -4.160156 9.921875 -4.835938 9.921875 -5.609375 Z M 9.921875 -5.609375 "/></g></g></g><g fill="#ffffff" fill-opacity="1"><g transform="translate(165.419932, 65.725648)"><g><path d="M 3.84375 -15.046875 L 3.84375 0 L 1.53125 0 L 1.53125 -15.046875 Z M 3.84375 -15.046875 "/></g></g></g><g fill="#ffffff" fill-opacity="1"><g transform="translate(170.381954, 65.725648)"><g><path d="M 6.21875 -9.3125 L 4.15625 -9.3125 L 4.15625 0 L 1.8125 0 L 1.8125 -9.3125 L 0.484375 -9.3125 L 0.484375 -11.203125 L 1.8125 -11.203125 L 1.8125 -12 C 1.8125 -13.289062 2.148438 -14.226562 2.828125 -14.8125 C 3.515625 -15.40625 4.59375 -15.703125 6.0625 -15.703125 L 6.0625 -13.765625 C 5.351562 -13.765625 4.859375 -13.632812 4.578125 -13.375 C 4.296875 -13.113281 4.15625 -12.65625 4.15625 -12 L 4.15625 -11.203125 L 6.21875 -11.203125 Z M 6.21875 -9.3125 "/></g></g></g><g fill="#ffffff" fill-opacity="1"><g transform="translate(176.726902, 65.725648)"><g><path d="M 6.390625 0.1875 C 5.328125 0.1875 4.367188 -0.0507812 3.515625 -0.53125 C 2.660156 -1.019531 1.988281 -1.703125 1.5 -2.578125 C 1.007812 -3.453125 0.765625 -4.460938 0.765625 -5.609375 C 0.765625 -6.753906 1.015625 -7.765625 1.515625 -8.640625 C 2.023438 -9.523438 2.710938 -10.203125 3.578125 -10.671875 C 4.441406 -11.148438 5.410156 -11.390625 6.484375 -11.390625 C 7.554688 -11.390625 8.523438 -11.148438 9.390625 -10.671875 C 10.265625 -10.203125 10.953125 -9.523438 11.453125 -8.640625 C 11.953125 -7.765625 12.203125 -6.753906 12.203125 -5.609375 C 12.203125 -4.472656 11.941406 -3.460938 11.421875 -2.578125 C 10.910156 -1.703125 10.210938 -1.019531 9.328125 -0.53125 C 8.441406 -0.0507812 7.460938 0.1875 6.390625 0.1875 Z M 6.390625 -1.828125 C 6.984375 -1.828125 7.539062 -1.96875 8.0625 -2.25 C 8.582031 -2.539062 9.003906 -2.96875 9.328125 -3.53125 C 9.660156 -4.101562 9.828125 -4.796875 9.828125 -5.609375 C 9.828125 -6.421875 9.671875 -7.109375 9.359375 -7.671875 C 9.046875 -8.242188 8.628906 -8.671875 8.109375 -8.953125 C 7.597656 -9.234375 7.046875 -9.375 6.453125 -9.375 C 5.847656 -9.375 5.289062 -9.234375 4.78125 -8.953125 C 4.28125 -8.671875 3.878906 -8.242188 3.578125 -7.671875 C 3.285156 -7.109375 3.140625 -6.421875 3.140625 -5.609375 C 3.140625 -4.398438 3.445312 -3.46875 4.0625 -2.8125 C 4.675781 -2.15625 5.453125 -1.828125 6.390625 -1.828125 Z M 6.390625 -1.828125 "/></g></g></g><g fill="#ffffff" fill-opacity="1"><g transform="translate(189.295006, 65.725648)"><g><path d="M 3.84375 -9.578125 C 4.1875 -10.148438 4.640625 -10.59375 5.203125 -10.90625 C 5.765625 -11.226562 6.429688 -11.390625 7.203125 -11.390625 L 7.203125 -8.984375 L 6.609375 -8.984375 C 5.703125 -8.984375 5.015625 -8.753906 4.546875 -8.296875 C 4.078125 -7.835938 3.84375 -7.039062 3.84375 -5.90625 L 3.84375 0 L 1.53125 0 L 1.53125 -11.203125 L 3.84375 -11.203125 Z M 3.84375 -9.578125 "/></g></g></g><g fill="#ffffff" fill-opacity="1"><g transform="translate(196.697483, 65.725648)"><g><path d="M 0.75 -5.65625 C 0.75 -6.78125 0.984375 -7.773438 1.453125 -8.640625 C 1.921875 -9.515625 2.554688 -10.191406 3.359375 -10.671875 C 4.171875 -11.148438 5.070312 -11.390625 6.0625 -11.390625 C 6.789062 -11.390625 7.507812 -11.226562 8.21875 -10.90625 C 8.9375 -10.59375 9.503906 -10.171875 9.921875 -9.640625 L 9.921875 -15.046875 L 12.265625 -15.046875 L 12.265625 0 L 9.921875 0 L 9.921875 -1.6875 C 9.546875 -1.144531 9.019531 -0.695312 8.34375 -0.34375 C 7.675781 0.0078125 6.910156 0.1875 6.046875 0.1875 C 5.066406 0.1875 4.171875 -0.0546875 3.359375 -0.546875 C 2.554688 -1.046875 1.921875 -1.738281 1.453125 -2.625 C 0.984375 -3.519531 0.75 -4.53125 0.75 -5.65625 Z M 9.921875 -5.609375 C 9.921875 -6.390625 9.757812 -7.0625 9.4375 -7.625 C 9.125 -8.195312 8.707031 -8.628906 8.1875 -8.921875 C 7.675781 -9.222656 7.125 -9.375 6.53125 -9.375 C 5.9375 -9.375 5.378906 -9.226562 4.859375 -8.9375 C 4.347656 -8.644531 3.929688 -8.21875 3.609375 -7.65625 C 3.296875 -7.09375 3.140625 -6.425781 3.140625 -5.65625 C 3.140625 -4.882812 3.296875 -4.207031 3.609375 -3.625 C 3.929688 -3.039062 4.351562 -2.59375 4.875 -2.28125 C 5.394531 -1.976562 5.945312 -1.828125 6.53125 -1.828125 C 7.125 -1.828125 7.675781 -1.972656 8.1875 -2.265625 C 8.707031 -2.566406 9.125 -3.003906 9.4375 -3.578125 C 9.757812 -4.160156 9.921875 -4.835938 9.921875 -5.609375 Z M 9.921875 -5.609375 "/></g></g></g><g fill="#ffffff" fill-opacity="1"><g transform="translate(210.079069, 65.725648)"><g/></g></g><g fill="#ffffff" fill-opacity="1"><g transform="translate(214.959748, 65.725648)"><g><path d="M 12.453125 0 L 10.703125 -1.75 C 10.023438 -1.070312 9.285156 -0.566406 8.484375 -0.234375 C 7.679688 0.0976562 6.785156 0.265625 5.796875 0.265625 C 4.796875 0.265625 3.90625 0.0859375 3.125 -0.265625 C 2.351562 -0.617188 1.757812 -1.125 1.34375 -1.78125 C 0.925781 -2.4375 0.71875 -3.195312 0.71875 -4.0625 C 0.71875 -5.039062 0.992188 -5.910156 1.546875 -6.671875 C 2.097656 -7.441406 2.925781 -8.050781 4.03125 -8.5 C 3.632812 -8.976562 3.351562 -9.421875 3.1875 -9.828125 C 3.03125 -10.242188 2.953125 -10.703125 2.953125 -11.203125 C 2.953125 -11.828125 3.109375 -12.382812 3.421875 -12.875 C 3.742188 -13.363281 4.203125 -13.75 4.796875 -14.03125 C 5.398438 -14.320312 6.09375 -14.46875 6.875 -14.46875 C 7.675781 -14.46875 8.359375 -14.3125 8.921875 -14 C 9.484375 -13.695312 9.898438 -13.28125 10.171875 -12.75 C 10.453125 -12.226562 10.566406 -11.640625 10.515625 -10.984375 L 8.203125 -10.984375 C 8.210938 -11.484375 8.085938 -11.875 7.828125 -12.15625 C 7.578125 -12.4375 7.226562 -12.578125 6.78125 -12.578125 C 6.332031 -12.578125 5.96875 -12.441406 5.6875 -12.171875 C 5.40625 -11.910156 5.265625 -11.585938 5.265625 -11.203125 C 5.265625 -10.835938 5.367188 -10.472656 5.578125 -10.109375 C 5.796875 -9.753906 6.164062 -9.296875 6.6875 -8.734375 L 10.4375 -5 L 11.875 -7.390625 L 14.390625 -7.390625 L 12.546875 -4.25 L 12.046875 -3.421875 L 15.484375 0 Z M 5.796875 -1.703125 C 7.066406 -1.703125 8.191406 -2.226562 9.171875 -3.28125 L 5.4375 -7.03125 C 3.832031 -6.394531 3.03125 -5.4375 3.03125 -4.15625 C 3.03125 -3.457031 3.285156 -2.875 3.796875 -2.40625 C 4.316406 -1.9375 4.984375 -1.703125 5.796875 -1.703125 Z M 5.796875 -1.703125 "/></g></g></g><g fill="#ffffff" fill-opacity="1"><g transform="translate(230.029309, 65.725648)"><g/></g></g><g fill="#ffffff" fill-opacity="1"><g transform="translate(234.909989, 65.725648)"><g><path d="M 0.75 -7.09375 C 0.75 -8.476562 1.070312 -9.71875 1.71875 -10.8125 C 2.363281 -11.914062 3.238281 -12.773438 4.34375 -13.390625 C 5.445312 -14.015625 6.65625 -14.328125 7.96875 -14.328125 C 9.476562 -14.328125 10.816406 -13.957031 11.984375 -13.21875 C 13.160156 -12.476562 14.015625 -11.425781 14.546875 -10.0625 L 11.765625 -10.0625 C 11.390625 -10.8125 10.875 -11.367188 10.21875 -11.734375 C 9.570312 -12.097656 8.820312 -12.28125 7.96875 -12.28125 C 7.039062 -12.28125 6.207031 -12.070312 5.46875 -11.65625 C 4.738281 -11.238281 4.164062 -10.632812 3.75 -9.84375 C 3.34375 -9.0625 3.140625 -8.144531 3.140625 -7.09375 C 3.140625 -6.050781 3.34375 -5.132812 3.75 -4.34375 C 4.164062 -3.5625 4.738281 -2.957031 5.46875 -2.53125 C 6.207031 -2.101562 7.039062 -1.890625 7.96875 -1.890625 C 8.820312 -1.890625 9.570312 -2.070312 10.21875 -2.4375 C 10.875 -2.800781 11.390625 -3.359375 11.765625 -4.109375 L 14.546875 -4.109375 C 14.015625 -2.753906 13.160156 -1.707031 11.984375 -0.96875 C 10.816406 -0.238281 9.476562 0.125 7.96875 0.125 C 6.644531 0.125 5.429688 -0.179688 4.328125 -0.796875 C 3.234375 -1.421875 2.363281 -2.28125 1.71875 -3.375 C 1.070312 -4.476562 0.75 -5.71875 0.75 -7.09375 Z M 0.75 -7.09375 "/></g></g></g><g fill="#ffffff" fill-opacity="1"><g transform="translate(250.223596, 65.725648)"><g><path d="M 6.390625 0.1875 C 5.328125 0.1875 4.367188 -0.0507812 3.515625 -0.53125 C 2.660156 -1.019531 1.988281 -1.703125 1.5 -2.578125 C 1.007812 -3.453125 0.765625 -4.460938 0.765625 -5.609375 C 0.765625 -6.753906 1.015625 -7.765625 1.515625 -8.640625 C 2.023438 -9.523438 2.710938 -10.203125 3.578125 -10.671875 C 4.441406 -11.148438 5.410156 -11.390625 6.484375 -11.390625 C 7.554688 -11.390625 8.523438 -11.148438 9.390625 -10.671875 C 10.265625 -10.203125 10.953125 -9.523438 11.453125 -8.640625 C 11.953125 -7.765625 12.203125 -6.753906 12.203125 -5.609375 C 12.203125 -4.472656 11.941406 -3.460938 11.421875 -2.578125 C 10.910156 -1.703125 10.210938 -1.019531 9.328125 -0.53125 C 8.441406 -0.0507812 7.460938 0.1875 6.390625 0.1875 Z M 6.390625 -1.828125 C 6.984375 -1.828125 7.539062 -1.96875 8.0625 -2.25 C 8.582031 -2.539062 9.003906 -2.96875 9.328125 -3.53125 C 9.660156 -4.101562 9.828125 -4.796875 9.828125 -5.609375 C 9.828125 -6.421875 9.671875 -7.109375 9.359375 -7.671875 C 9.046875 -8.242188 8.628906 -8.671875 8.109375 -8.953125 C 7.597656 -9.234375 7.046875 -9.375 6.453125 -9.375 C 5.847656 -9.375 5.289062 -9.234375 4.78125 -8.953125 C 4.28125 -8.671875 3.878906 -8.242188 3.578125 -7.671875 C 3.285156 -7.109375 3.140625 -6.421875 3.140625 -5.609375 C 3.140625 -4.398438 3.445312 -3.46875 4.0625 -2.8125 C 4.675781 -2.15625 5.453125 -1.828125 6.390625 -1.828125 Z M 6.390625 -1.828125 "/></g></g></g><g fill="#ffffff" fill-opacity="1"><g transform="translate(262.7917, 65.725648)"><g><path d="M 2.46875 0.140625 C 2.039062 0.140625 1.679688 0 1.390625 -0.28125 C 1.109375 -0.570312 0.96875 -0.925781 0.96875 -1.34375 C 0.96875 -1.757812 1.109375 -2.109375 1.390625 -2.390625 C 1.679688 -2.679688 2.039062 -2.828125 2.46875 -2.828125 C 2.875 -2.828125 3.21875 -2.679688 3.5 -2.390625 C 3.78125 -2.109375 3.921875 -1.757812 3.921875 -1.34375 C 3.921875 -0.925781 3.78125 -0.570312 3.5 -0.28125 C 3.21875 0 2.875 0.140625 2.46875 0.140625 Z M 2.46875 0.140625 "/></g></g></g><g fill="#4154f1" fill-opacity="1"><g transform="translate(-2.709253, 806.903688)"><g><path d="M 392.859375 -555.59375 L 301.3125 -555.59375 L 301.3125 -675.09375 C 301.3125 -691.195312 298.976562 -701.789062 294.3125 -706.875 C 289.65625 -711.96875 279.273438 -714.515625 263.171875 -714.515625 L 193.25 -714.515625 C 177.144531 -714.515625 166.550781 -712.179688 161.46875 -707.515625 C 156.382812 -702.859375 153.84375 -692.050781 153.84375 -675.09375 L 153.84375 -114.421875 C 153.84375 -98.316406 156.382812 -87.722656 161.46875 -82.640625 C 166.550781 -77.554688 177.144531 -75.015625 193.25 -75.015625 L 263.171875 -75.015625 C 279.273438 -75.015625 289.65625 -77.554688 294.3125 -82.640625 C 298.976562 -87.722656 301.3125 -98.316406 301.3125 -114.421875 L 301.3125 -233.9375 L 392.859375 -233.9375 L 392.859375 -100.4375 C 392.859375 -32.632812 358.53125 1.265625 289.875 1.265625 L 165.28125 1.265625 C 97.46875 1.265625 63.5625 -32.632812 63.5625 -100.4375 L 63.5625 -689.078125 C 63.5625 -756.890625 97.46875 -790.796875 165.28125 -790.796875 L 289.875 -790.796875 C 324.625 -790.796875 350.472656 -782.53125 367.421875 -766 C 384.378906 -749.476562 392.859375 -723.835938 392.859375 -689.078125 Z M 392.859375 -555.59375 "/></g></g></g><g fill="#4154f1" fill-opacity="1"><g transform="translate(389.126058, 806.903688)"><g><path d="M 155.109375 0 C 87.296875 0 53.390625 -33.898438 53.390625 -101.703125 L 53.390625 -223.765625 L 143.671875 -223.765625 L 143.671875 -115.6875 C 143.671875 -99.582031 146.210938 -89.195312 151.296875 -84.53125 C 156.378906 -79.875 166.972656 -77.546875 183.078125 -77.546875 L 240.296875 -77.546875 C 256.398438 -77.546875 266.992188 -79.875 272.078125 -84.53125 C 277.160156 -89.195312 279.703125 -99.582031 279.703125 -115.6875 L 279.703125 -329.28125 C 279.703125 -346.238281 277.367188 -357.046875 272.703125 -361.703125 C 268.046875 -366.367188 257.242188 -368.703125 240.296875 -368.703125 L 152.5625 -368.703125 C 84.757812 -368.703125 50.859375 -402.601562 50.859375 -470.40625 L 50.859375 -689.078125 C 50.859375 -756.890625 84.757812 -790.796875 152.5625 -790.796875 L 266.984375 -790.796875 C 334.796875 -790.796875 368.703125 -756.890625 368.703125 -689.078125 L 368.703125 -568.296875 L 278.4375 -568.296875 L 278.4375 -675.09375 C 278.4375 -692.050781 276.101562 -702.859375 271.4375 -707.515625 C 266.78125 -712.179688 255.972656 -714.515625 239.015625 -714.515625 L 180.53125 -714.515625 C 164.425781 -714.515625 153.832031 -712.179688 148.75 -707.515625 C 143.664062 -702.859375 141.125 -692.050781 141.125 -675.09375 L 141.125 -484.390625 C 141.125 -468.285156 143.664062 -457.898438 148.75 -453.234375 C 153.832031 -448.578125 164.425781 -446.25 180.53125 -446.25 L 268.265625 -446.25 C 336.066406 -446.25 369.96875 -412.347656 369.96875 -344.546875 L 369.96875 -101.703125 C 369.96875 -33.898438 336.066406 0 268.265625 0 Z M 155.109375 0 "/></g></g></g></svg>