<svg xmlns="http://www.w3.org/2000/svg" xmlns:xlink="http://www.w3.org/1999/xlink" width="300" zoomAndPan="magnify" viewBox="0 0 375 374.999991" height="500" preserveAspectRatio="xMidYMid meet" version="1.0"><defs><g/></defs><path stroke-linecap="butt" transform="matrix(0.75, 0, 0, 0.75, 4.664876, 194.08821)" fill="none" stroke-linejoin="miter" d="M -0.00108407 9.502178 L 359.384356 9.502178 " stroke="#1c2120" stroke-width="19" stroke-opacity="1" stroke-miterlimit="4"/><g fill="#1c2120" fill-opacity="1"><g transform="translate(0.0000045, 177.454388)"><g><path d="M 20.40625 0.6875 C 16.832031 0.6875 13.625 -0.0664062 10.78125 -1.578125 C 7.945312 -3.085938 5.71875 -5.191406 4.09375 -7.890625 C 2.46875 -10.585938 1.65625 -13.640625 1.65625 -17.046875 C 1.65625 -20.453125 2.46875 -23.503906 4.09375 -26.203125 C 5.71875 -28.898438 7.945312 -31.003906 10.78125 -32.515625 C 13.625 -34.023438 16.832031 -34.78125 20.40625 -34.78125 C 23.519531 -34.78125 26.328125 -34.226562 28.828125 -33.125 C 31.328125 -32.019531 33.40625 -30.425781 35.0625 -28.34375 L 28.9375 -22.796875 C 26.726562 -25.453125 24.046875 -26.78125 20.890625 -26.78125 C 19.046875 -26.78125 17.398438 -26.375 15.953125 -25.5625 C 14.503906 -24.757812 13.378906 -23.617188 12.578125 -22.140625 C 11.785156 -20.660156 11.390625 -18.960938 11.390625 -17.046875 C 11.390625 -15.128906 11.785156 -13.429688 12.578125 -11.953125 C 13.378906 -10.472656 14.503906 -9.328125 15.953125 -8.515625 C 17.398438 -7.710938 19.046875 -7.3125 20.890625 -7.3125 C 24.046875 -7.3125 26.726562 -8.640625 28.9375 -11.296875 L 35.0625 -5.75 C 33.40625 -3.664062 31.328125 -2.070312 28.828125 -0.96875 C 26.328125 0.132812 23.519531 0.6875 20.40625 0.6875 Z M 20.40625 0.6875 "/></g></g></g><g fill="#1c2120" fill-opacity="1"><g transform="translate(40.178506, 177.454388)"><g><path d="M 20.59375 0.6875 C 17 0.6875 13.765625 -0.0703125 10.890625 -1.59375 C 8.015625 -3.125 5.753906 -5.238281 4.109375 -7.9375 C 2.472656 -10.632812 1.65625 -13.671875 1.65625 -17.046875 C 1.65625 -20.421875 2.472656 -23.457031 4.109375 -26.15625 C 5.753906 -28.851562 8.015625 -30.960938 10.890625 -32.484375 C 13.765625 -34.015625 17 -34.78125 20.59375 -34.78125 C 24.195312 -34.78125 27.4375 -34.015625 30.3125 -32.484375 C 33.1875 -30.960938 35.441406 -28.851562 37.078125 -26.15625 C 38.722656 -23.457031 39.546875 -20.421875 39.546875 -17.046875 C 39.546875 -13.671875 38.722656 -10.632812 37.078125 -7.9375 C 35.441406 -5.238281 33.1875 -3.125 30.3125 -1.59375 C 27.4375 -0.0703125 24.195312 0.6875 20.59375 0.6875 Z M 20.59375 -7.3125 C 22.320312 -7.3125 23.882812 -7.710938 25.28125 -8.515625 C 26.675781 -9.328125 27.78125 -10.472656 28.59375 -11.953125 C 29.40625 -13.429688 29.8125 -15.128906 29.8125 -17.046875 C 29.8125 -18.960938 29.40625 -20.660156 28.59375 -22.140625 C 27.78125 -23.617188 26.675781 -24.757812 25.28125 -25.5625 C 23.882812 -26.375 22.320312 -26.78125 20.59375 -26.78125 C 18.875 -26.78125 17.316406 -26.375 15.921875 -25.5625 C 14.523438 -24.757812 13.421875 -23.617188 12.609375 -22.140625 C 11.796875 -20.660156 11.390625 -18.960938 11.390625 -17.046875 C 11.390625 -15.128906 11.796875 -13.429688 12.609375 -11.953125 C 13.421875 -10.472656 14.523438 -9.328125 15.921875 -8.515625 C 17.316406 -7.710938 18.875 -7.3125 20.59375 -7.3125 Z M 20.59375 -7.3125 "/></g></g></g><g fill="#1c2120" fill-opacity="1"><g transform="translate(85.616733, 177.454388)"><g><path d="M 56.890625 -34.09375 L 45.828125 0 L 35.5 0 L 28.984375 -20.75 L 22.15625 0 L 11.828125 0 L 0.78125 -34.09375 L 10.71875 -34.09375 L 17.578125 -12.328125 L 24.796875 -34.09375 L 33.65625 -34.09375 L 40.515625 -12.125 L 47.6875 -34.09375 Z M 56.890625 -34.09375 "/></g></g></g><g fill="#1c2120" fill-opacity="1"><g transform="translate(147.515976, 177.454388)"><g><path d="M 20.59375 0.6875 C 17 0.6875 13.765625 -0.0703125 10.890625 -1.59375 C 8.015625 -3.125 5.753906 -5.238281 4.109375 -7.9375 C 2.472656 -10.632812 1.65625 -13.671875 1.65625 -17.046875 C 1.65625 -20.421875 2.472656 -23.457031 4.109375 -26.15625 C 5.753906 -28.851562 8.015625 -30.960938 10.890625 -32.484375 C 13.765625 -34.015625 17 -34.78125 20.59375 -34.78125 C 24.195312 -34.78125 27.4375 -34.015625 30.3125 -32.484375 C 33.1875 -30.960938 35.441406 -28.851562 37.078125 -26.15625 C 38.722656 -23.457031 39.546875 -20.421875 39.546875 -17.046875 C 39.546875 -13.671875 38.722656 -10.632812 37.078125 -7.9375 C 35.441406 -5.238281 33.1875 -3.125 30.3125 -1.59375 C 27.4375 -0.0703125 24.195312 0.6875 20.59375 0.6875 Z M 20.59375 -7.3125 C 22.320312 -7.3125 23.882812 -7.710938 25.28125 -8.515625 C 26.675781 -9.328125 27.78125 -10.472656 28.59375 -11.953125 C 29.40625 -13.429688 29.8125 -15.128906 29.8125 -17.046875 C 29.8125 -18.960938 29.40625 -20.660156 28.59375 -22.140625 C 27.78125 -23.617188 26.675781 -24.757812 25.28125 -25.5625 C 23.882812 -26.375 22.320312 -26.78125 20.59375 -26.78125 C 18.875 -26.78125 17.316406 -26.375 15.921875 -25.5625 C 14.523438 -24.757812 13.421875 -23.617188 12.609375 -22.140625 C 11.796875 -20.660156 11.390625 -18.960938 11.390625 -17.046875 C 11.390625 -15.128906 11.796875 -13.429688 12.609375 -11.953125 C 13.421875 -10.472656 14.523438 -9.328125 15.921875 -8.515625 C 17.316406 -7.710938 18.875 -7.3125 20.59375 -7.3125 Z M 20.59375 -7.3125 "/></g></g></g><g fill="#1c2120" fill-opacity="1"><g transform="translate(192.954199, 177.454388)"><g><path d="M 18.3125 -9.0625 L 13.046875 -9.0625 L 13.046875 0 L 3.40625 0 L 3.40625 -34.09375 L 19 -34.09375 C 22.082031 -34.09375 24.757812 -33.582031 27.03125 -32.5625 C 29.300781 -31.539062 31.050781 -30.078125 32.28125 -28.171875 C 33.519531 -26.273438 34.140625 -24.046875 34.140625 -21.484375 C 34.140625 -19.015625 33.5625 -16.859375 32.40625 -15.015625 C 31.257812 -13.179688 29.613281 -11.75 27.46875 -10.71875 L 34.828125 0 L 24.5 0 Z M 24.40625 -21.484375 C 24.40625 -23.066406 23.898438 -24.296875 22.890625 -25.171875 C 21.878906 -26.054688 20.382812 -26.5 18.40625 -26.5 L 13.046875 -26.5 L 13.046875 -16.515625 L 18.40625 -16.515625 C 20.382812 -16.515625 21.878906 -16.941406 22.890625 -17.796875 C 23.898438 -18.660156 24.40625 -19.890625 24.40625 -21.484375 Z M 24.40625 -21.484375 "/></g></g></g><g fill="#1c2120" fill-opacity="1"><g transform="translate(233.230101, 177.454388)"><g><path d="M 16.5625 -12.375 L 12.953125 -8.515625 L 12.953125 0 L 3.40625 0 L 3.40625 -34.09375 L 12.953125 -34.09375 L 12.953125 -19.921875 L 26.15625 -34.09375 L 36.765625 -34.09375 L 22.84375 -19 L 37.5 0 L 26.296875 0 Z M 16.5625 -12.375 "/></g></g></g><g fill="#1c2120" fill-opacity="1"><g transform="translate(274.090412, 177.454388)"><g><path d="M 3.40625 -34.09375 L 13.046875 -34.09375 L 13.046875 0 L 3.40625 0 Z M 3.40625 -34.09375 "/></g></g></g><g fill="#1c2120" fill-opacity="1"><g transform="translate(294.83712, 177.454388)"><g><path d="M 35.84375 -34.09375 L 35.84375 0 L 27.90625 0 L 12.859375 -18.171875 L 12.859375 0 L 3.40625 0 L 3.40625 -34.09375 L 11.34375 -34.09375 L 26.390625 -15.921875 L 26.390625 -34.09375 Z M 35.84375 -34.09375 "/></g></g></g><g fill="#1c2120" fill-opacity="1"><g transform="translate(338.327322, 177.454388)"><g><path d="M 26.25 -17.78125 L 34.78125 -17.78125 L 34.78125 -3.65625 C 32.832031 -2.257812 30.585938 -1.1875 28.046875 -0.4375 C 25.515625 0.3125 22.984375 0.6875 20.453125 0.6875 C 16.878906 0.6875 13.664062 -0.0664062 10.8125 -1.578125 C 7.957031 -3.085938 5.71875 -5.191406 4.09375 -7.890625 C 2.46875 -10.585938 1.65625 -13.640625 1.65625 -17.046875 C 1.65625 -20.453125 2.46875 -23.503906 4.09375 -26.203125 C 5.71875 -28.898438 7.972656 -31.003906 10.859375 -32.515625 C 13.753906 -34.023438 17.019531 -34.78125 20.65625 -34.78125 C 23.832031 -34.78125 26.6875 -34.242188 29.21875 -33.171875 C 31.75 -32.097656 33.859375 -30.554688 35.546875 -28.546875 L 29.421875 -22.984375 C 27.109375 -25.515625 24.347656 -26.78125 21.140625 -26.78125 C 18.210938 -26.78125 15.851562 -25.894531 14.0625 -24.125 C 12.28125 -22.363281 11.390625 -20.003906 11.390625 -17.046875 C 11.390625 -15.160156 11.796875 -13.476562 12.609375 -12 C 13.421875 -10.53125 14.554688 -9.378906 16.015625 -8.546875 C 17.484375 -7.722656 19.160156 -7.3125 21.046875 -7.3125 C 22.890625 -7.3125 24.625 -7.679688 26.25 -8.421875 Z M 26.25 -17.78125 "/></g></g></g><g fill="#1c2120" fill-opacity="1"><g transform="translate(284.117417, 207.300868)"><g><path d="M 5.59375 0.140625 C 4.632812 0.140625 3.710938 -0.00390625 2.828125 -0.296875 C 1.941406 -0.585938 1.242188 -0.972656 0.734375 -1.453125 L 1.40625 -2.859375 C 1.894531 -2.421875 2.515625 -2.066406 3.265625 -1.796875 C 4.015625 -1.523438 4.789062 -1.390625 5.59375 -1.390625 C 6.644531 -1.390625 7.425781 -1.566406 7.9375 -1.921875 C 8.457031 -2.273438 8.71875 -2.75 8.71875 -3.34375 C 8.71875 -3.78125 8.578125 -4.132812 8.296875 -4.40625 C 8.015625 -4.675781 7.664062 -4.882812 7.25 -5.03125 C 6.832031 -5.175781 6.242188 -5.335938 5.484375 -5.515625 C 4.523438 -5.742188 3.753906 -5.972656 3.171875 -6.203125 C 2.585938 -6.429688 2.085938 -6.785156 1.671875 -7.265625 C 1.253906 -7.742188 1.046875 -8.382812 1.046875 -9.1875 C 1.046875 -9.863281 1.222656 -10.472656 1.578125 -11.015625 C 1.929688 -11.554688 2.46875 -11.988281 3.1875 -12.3125 C 3.914062 -12.644531 4.820312 -12.8125 5.90625 -12.8125 C 6.644531 -12.8125 7.375 -12.710938 8.09375 -12.515625 C 8.820312 -12.328125 9.445312 -12.050781 9.96875 -11.6875 L 9.375 -10.234375 C 8.84375 -10.578125 8.273438 -10.832031 7.671875 -11 C 7.066406 -11.175781 6.476562 -11.265625 5.90625 -11.265625 C 4.875 -11.265625 4.101562 -11.078125 3.59375 -10.703125 C 3.082031 -10.335938 2.828125 -9.859375 2.828125 -9.265625 C 2.828125 -8.828125 2.96875 -8.472656 3.25 -8.203125 C 3.539062 -7.929688 3.898438 -7.71875 4.328125 -7.5625 C 4.753906 -7.414062 5.335938 -7.257812 6.078125 -7.09375 C 7.035156 -6.863281 7.800781 -6.632812 8.375 -6.40625 C 8.957031 -6.175781 9.457031 -5.828125 9.875 -5.359375 C 10.289062 -4.890625 10.5 -4.253906 10.5 -3.453125 C 10.5 -2.785156 10.316406 -2.175781 9.953125 -1.625 C 9.585938 -1.082031 9.035156 -0.648438 8.296875 -0.328125 C 7.566406 -0.015625 6.664062 0.140625 5.59375 0.140625 Z M 5.59375 0.140625 "/></g></g></g><g fill="#1c2120" fill-opacity="1"><g transform="translate(299.839594, 207.300868)"><g><path d="M 6.84375 -12.671875 C 8.476562 -12.671875 9.765625 -12.273438 10.703125 -11.484375 C 11.648438 -10.703125 12.125 -9.625 12.125 -8.25 C 12.125 -6.875 11.648438 -5.789062 10.703125 -5 C 9.765625 -4.21875 8.476562 -3.828125 6.84375 -3.828125 L 3.703125 -3.828125 L 3.703125 0 L 1.90625 0 L 1.90625 -12.671875 Z M 6.78125 -5.40625 C 7.925781 -5.40625 8.800781 -5.648438 9.40625 -6.140625 C 10.007812 -6.628906 10.3125 -7.332031 10.3125 -8.25 C 10.3125 -9.164062 10.007812 -9.867188 9.40625 -10.359375 C 8.800781 -10.847656 7.925781 -11.09375 6.78125 -11.09375 L 3.703125 -11.09375 L 3.703125 -5.40625 Z M 6.78125 -5.40625 "/></g></g></g><g fill="#1c2120" fill-opacity="1"><g transform="translate(317.389054, 207.300868)"><g><path d="M 9.96875 -3.171875 L 3.234375 -3.171875 L 1.84375 0 L -0.015625 0 L 5.71875 -12.671875 L 7.515625 -12.671875 L 13.265625 0 L 11.359375 0 Z M 9.34375 -4.609375 L 6.609375 -10.8125 L 3.875 -4.609375 Z M 9.34375 -4.609375 "/></g></g></g><g fill="#1c2120" fill-opacity="1"><g transform="translate(335.119423, 207.300868)"><g><path d="M 7.5625 0.140625 C 6.289062 0.140625 5.144531 -0.132812 4.125 -0.6875 C 3.113281 -1.25 2.316406 -2.019531 1.734375 -3 C 1.160156 -3.988281 0.875 -5.097656 0.875 -6.328125 C 0.875 -7.554688 1.160156 -8.660156 1.734375 -9.640625 C 2.316406 -10.628906 3.117188 -11.40625 4.140625 -11.96875 C 5.171875 -12.53125 6.316406 -12.8125 7.578125 -12.8125 C 8.566406 -12.8125 9.472656 -12.644531 10.296875 -12.3125 C 11.117188 -11.976562 11.816406 -11.488281 12.390625 -10.84375 L 11.21875 -9.703125 C 10.257812 -10.703125 9.070312 -11.203125 7.65625 -11.203125 C 6.71875 -11.203125 5.867188 -10.988281 5.109375 -10.5625 C 4.347656 -10.144531 3.75 -9.5625 3.3125 -8.8125 C 2.882812 -8.070312 2.671875 -7.242188 2.671875 -6.328125 C 2.671875 -5.410156 2.882812 -4.582031 3.3125 -3.84375 C 3.75 -3.101562 4.347656 -2.519531 5.109375 -2.09375 C 5.867188 -1.675781 6.71875 -1.46875 7.65625 -1.46875 C 9.0625 -1.46875 10.25 -1.972656 11.21875 -2.984375 L 12.390625 -1.84375 C 11.816406 -1.195312 11.113281 -0.703125 10.28125 -0.359375 C 9.457031 -0.0234375 8.550781 0.140625 7.5625 0.140625 Z M 7.5625 0.140625 "/></g></g></g><g fill="#1c2120" fill-opacity="1"><g transform="translate(352.68698, 207.300868)"><g><path d="M 11.09375 -1.578125 L 11.09375 0 L 1.90625 0 L 1.90625 -12.671875 L 10.84375 -12.671875 L 10.84375 -11.09375 L 3.703125 -11.09375 L 3.703125 -7.203125 L 10.0625 -7.203125 L 10.0625 -5.65625 L 3.703125 -5.65625 L 3.703125 -1.578125 Z M 11.09375 -1.578125 "/></g></g></g></svg>