<svg xmlns="http://www.w3.org/2000/svg" xmlns:xlink="http://www.w3.org/1999/xlink" width="1080" zoomAndPan="magnify" viewBox="0 0 810 809.999993" height="1080" preserveAspectRatio="xMidYMid meet" version="1.0"><defs><clipPath id="0bb1eec97f"><path d="M 31.019531 12 L 778.769531 12 L 778.769531 797.851562 L 31.019531 797.851562 Z M 31.019531 12 " clip-rule="nonzero"/></clipPath></defs><path fill="#4154f1" d="M 405.023438 206.46875 C 322.398438 206.46875 255.417969 276.816406 255.417969 363.59375 C 255.417969 450.382812 322.398438 520.730469 405.023438 520.730469 C 487.648438 520.730469 554.617188 450.382812 554.617188 363.59375 C 554.617188 276.816406 487.648438 206.46875 405.023438 206.46875 " fill-opacity="1" fill-rule="nonzero"/><g clip-path="url(#0bb1eec97f)"><path fill="#4154f1" d="M 653.480469 676.191406 C 620.347656 595.3125 550.792969 544.726562 404.792969 544.726562 C 258.988281 544.726562 189.433594 595.179688 156.25 675.875 C 88.710938 607.421875 46.699219 511.363281 46.699219 405 C 46.699219 197.136719 207.125 28.632812 405.023438 28.632812 C 602.921875 28.632812 763.347656 197.136719 763.347656 405 C 763.347656 511.53125 721.199219 607.722656 653.480469 676.191406 Z M 405.023438 12.167969 C 198.464844 12.167969 31.019531 188.042969 31.019531 405 C 31.019531 518.472656 76.824219 620.710938 150.082031 692.425781 C 216.878906 757.820312 306.496094 797.832031 405.023438 797.832031 C 503.371094 797.832031 592.859375 757.953125 659.625 692.753906 C 733.070312 621.027344 779.027344 518.648438 779.027344 405 C 779.027344 188.042969 611.570312 12.167969 405.023438 12.167969 " fill-opacity="1" fill-rule="nonzero"/></g><path stroke-linecap="butt" transform="matrix(0.75, 0, 0, 0.75, 275.39999, 524.96385)" fill="none" stroke-linejoin="miter" d="M -0.00206953 2.001326 L 345.602115 2.001326 " stroke="#ffffff" stroke-width="4" stroke-opacity="1" stroke-miterlimit="4"/></svg>